<svg xmlns="http://www.w3.org/2000/svg" width="64.71" height="64.73" viewBox="0 0 64.71 64.73"><path id="ios-quote" d="M118.851,96H105.707A9.735,9.735,0,0,0,96,105.707v25.884a9.735,9.735,0,0,0,9.707,9.706h7.826a1.627,1.627,0,0,1,1.618,1.739,24.666,24.666,0,0,1-6.329,14.984,1.619,1.619,0,0,0,1.193,2.71h8.069a1.571,1.571,0,0,0,1.274-.627c1.5-1.941,5.763-8.412,5.763-18.988V102.289A6.13,6.13,0,0,0,118.851,96Zm35.591,0H141.3a9.735,9.735,0,0,0-9.706,9.707v25.884A9.735,9.735,0,0,0,141.3,141.3h7.826a1.627,1.627,0,0,1,1.618,1.739,24.666,24.666,0,0,1-6.329,14.984,1.619,1.619,0,0,0,1.193,2.71h8.069a1.571,1.571,0,0,0,1.274-.627c1.5-1.941,5.763-8.412,5.763-18.988V102.289A6.13,6.13,0,0,0,154.441,96Z" transform="translate(160.71 160.73) rotate(180)" fill="#bdd896"/></svg>